{
  "accessors": [
    {
      "bufferView": 2,
      "componentType": 5126,
      "count": 65532,
      "max": [
        14.466351509094238,
        81.74015808105469,
        128.50595092773438
      ],
      "min": [
        -14.466282844543457,
        -43.33362579345703,
        -13.608322143554688
      ],
      "type": "VEC3"
    },
    {
      "bufferView": 2,
      "byteOffset": 786384,
      "componentType": 5126,
      "count": 65532,
      "max": [
        1.0,
        0.9999995827674866,
        1.0
      ],
      "min": [
        -1.0,
        -0.9999997615814209,
        -1.0
      ],
      "type": "VEC3"
    },
    {
      "bufferView": 1,
      "componentType": 5126,
      "count": 65532,
      "max": [
        1.0,
        1.0
      ],
      "min": [
        0.0,
        0.0
      ],
      "type": "VEC2"
    },
    {
      "bufferView": 0,
      "componentType": 5125,
      "count": 382113,
      "type": "SCALAR"
    },
    {
      "bufferView": 2,
      "byteOffset": 1572768,
      "componentType": 5126,
      "count": 14211,
      "max": [
        14.45814037322998,
        94.76141357421875,
        109.30329132080078
      ],
      "min": [
        -14.45815372467041,
        50.143699645996094,
        31.735816955566406
      ],
      "type": "VEC3"
    },
    {
      "bufferView": 2,
      "byteOffset": 1743300,
      "componentType": 5126,
      "count": 14211,
      "max": [
        1.0,
        0.9999998807907104,
        0.9998219609260559
      ],
      "min": [
        -1.0,
        -0.9999998807907104,
        -0.9998453259468079
      ],
      "type": "VEC3"
    },
    {
      "bufferView": 1,
      "byteOffset": 524256,
      "componentType": 5126,
      "count": 14211,
      "max": [
        1.0,
        1.0
      ],
      "min": [
        0.0,
        0.0
      ],
      "type": "VEC2"
    },
    {
      "bufferView": 0,
      "byteOffset": 1528452,
      "componentType": 5125,
      "count": 82527,
      "type": "SCALAR"
    },
    {
      "bufferView": 2,
      "byteOffset": 1913832,
      "componentType": 5126,
      "count": 65532,
      "max": [
        14.466351509094238,
        81.74015808105469,
        128.50595092773438
      ],
      "min": [
        -14.466282844543457,
        -43.33362579345703,
        -13.608322143554688
      ],
      "type": "VEC3"
    },
    {
      "bufferView": 2,
      "byteOffset": 2700216,
      "componentType": 5126,
      "count": 65532,
      "max": [
        1.0,
        0.9999995827674866,
        1.0
      ],
      "min": [
        -1.0,
        -0.9999997615814209,
        -1.0
      ],
      "type": "VEC3"
    },
    {
      "bufferView": 1,
      "byteOffset": 637944,
      "componentType": 5126,
      "count": 65532,
      "max": [
        1.0,
        1.0
      ],
      "min": [
        0.0,
        0.0
      ],
      "type": "VEC2"
    },
    {
      "bufferView": 0,
      "byteOffset": 1858560,
      "componentType": 5125,
      "count": 382113,
      "type": "SCALAR"
    },
    {
      "bufferView": 2,
      "byteOffset": 3486600,
      "componentType": 5126,
      "count": 14211,
      "max": [
        14.45814037322998,
        94.76141357421875,
        109.30329132080078
      ],
      "min": [
        -14.45815372467041,
        50.143699645996094,
        31.735816955566406
      ],
      "type": "VEC3"
    },
    {
      "bufferView": 2,
      "byteOffset": 3657132,
      "componentType": 5126,
      "count": 14211,
      "max": [
        1.0,
        0.9999998807907104,
        0.9998219609260559
      ],
      "min": [
        -1.0,
        -0.9999998807907104,
        -0.9998453259468079
      ],
      "type": "VEC3"
    },
    {
      "bufferView": 1,
      "byteOffset": 1162200,
      "componentType": 5126,
      "count": 14211,
      "max": [
        1.0,
        1.0
      ],
      "min": [
        0.0,
        0.0
      ],
      "type": "VEC2"
    },
    {
      "bufferView": 0,
      "byteOffset": 3387012,
      "componentType": 5125,
      "count": 82527,
      "type": "SCALAR"
    },
    {
      "bufferView": 3,
      "componentType": 5126,
      "count": 101,
      "max": [
        3.3333332538604736
      ],
      "min": [
        0.0
      ],
      "type": "SCALAR"
    },
    {
      "bufferView": 4,
      "componentType": 5126,
      "count": 101,
      "max": [
        1.939164142219493e-16,
        1.0,
        1.0,
        2.003070528158564e-16
      ],
      "min": [
        -2.832769343193999e-16,
        -0.6845471262931824,
        -0.7071067690849304,
        -2.832769343193999e-16
      ],
      "type": "VEC4"
    },
    {
      "bufferView": 3,
      "byteOffset": 404,
      "componentType": 5126,
      "count": 101,
      "max": [
        3.3333332538604736
      ],
      "min": [
        0.0
      ],
      "type": "SCALAR"
    },
    {
      "bufferView": 4,
      "byteOffset": 1616,
      "componentType": 5126,
      "count": 101,
      "max": [
        0.7071067690849304,
        0.7071067690849304,
        0.5,
        0.7071067690849304
      ],
      "min": [
        -0.5,
        -0.48404785990715027,
        -0.7071067690849304,
        -0.48404785990715027
      ],
      "type": "VEC4"
    }
  ],
  "animations": [
    {
      "channels": [
        {
          "sampler": 0,
          "target": {
            "node": 4,
            "path": "rotation"
          }
        },
        {
          "sampler": 1,
          "target": {
            "node": 8,
            "path": "rotation"
          }
        }
      ],
      "name": "Take 001",
      "samplers": [
        {
          "input": 16,
          "interpolation": "LINEAR",
          "output": 17
        },
        {
          "input": 18,
          "interpolation": "LINEAR",
          "output": 19
        }
      ]
    }
  ],
  "asset": {
    "extras": {
      "author": "pnbdesign (https://sketchfab.com/pnbdesign)",
      "license": "CC-BY-4.0 (http://creativecommons.org/licenses/by/4.0/)",
      "source": "https://sketchfab.com/3d-models/moving-chains-9dcb376f9c6b4e9789a2757209ce0dd4",
      "title": "Moving Chains"
    },
    "generator": "Sketchfab-12.66.0",
    "version": "2.0"
  },
  "bufferViews": [
    {
      "buffer": 0,
      "byteLength": 3717120,
      "name": "floatBufferViews",
      "target": 34963
    },
    {
      "buffer": 0,
      "byteLength": 1275888,
      "byteOffset": 3717120,
      "byteStride": 8,
      "name": "floatBufferViews",
      "target": 34962
    },
    {
      "buffer": 0,
      "byteLength": 3827664,
      "byteOffset": 4993008,
      "byteStride": 12,
      "name": "floatBufferViews",
      "target": 34962
    },
    {
      "buffer": 0,
      "byteLength": 808,
      "byteOffset": 8820672,
      "name": "floatBufferViews"
    },
    {
      "buffer": 0,
      "byteLength": 3232,
      "byteOffset": 8821480,
      "byteStride": 16,
      "name": "floatBufferViews"
    }
  ],
  "buffers": [
    {
      "byteLength": 8824712,
      "uri": "scene.bin"
    }
  ],
  "materials": [
    {
      "doubleSided": true,
      "name": "Scene_-_Root",
      "pbrMetallicRoughness": {
        "roughnessFactor": 0.1806079216723172
      }
    }
  ],
  "meshes": [
    {
      "name": "Torus006__0",
      "primitives": [
        {
          "attributes": {
            "NORMAL": 1,
            "POSITION": 0,
            "TEXCOORD_0": 2
          },
          "indices": 3,
          "material": 0,
          "mode": 4
        }
      ]
    },
    {
      "name": "Torus006__0",
      "primitives": [
        {
          "attributes": {
            "NORMAL": 5,
            "POSITION": 4,
            "TEXCOORD_0": 6
          },
          "indices": 7,
          "material": 0,
          "mode": 4
        }
      ]
    },
    {
      "name": "Torus008__0",
      "primitives": [
        {
          "attributes": {
            "NORMAL": 9,
            "POSITION": 8,
            "TEXCOORD_0": 10
          },
          "indices": 11,
          "material": 0,
          "mode": 4
        }
      ]
    },
    {
      "name": "Torus008__0",
      "primitives": [
        {
          "attributes": {
            "NORMAL": 13,
            "POSITION": 12,
            "TEXCOORD_0": 14
          },
          "indices": 15,
          "material": 0,
          "mode": 4
        }
      ]
    }
  ],
  "nodes": [
    {
      "children": [
        1
      ],
      "matrix": [
        1.0,
        0.0,
        0.0,
        0.0,
        0.0,
        2.220446049250313e-16,
        -1.0,
        0.0,
        0.0,
        1.0,
        2.220446049250313e-16,
        0.0,
        0.0,
        0.0,
        0.0,
        1.0
      ],
      "name": "Sketchfab_model"
    },
    {
      "children": [
        2
      ],
      "matrix": [
        1.0,
        0.0,
        0.0,
        0.0,
        0.0,
        0.0,
        1.0,
        0.0,
        0.0,
        -1.0,
        0.0,
        0.0,
        0.0,
        0.0,
        0.0,
        1.0
      ],
      "name": "cad0cdd9c50f4d61b6d5210b6764a295.fbx"
    },
    {
      "children": [
        3
      ],
      "name": "Object_2"
    },
    {
      "children": [
        4,
        8
      ],
      "name": "RootNode"
    },
    {
      "children": [
        5
      ],
      "name": "Torus006",
      "rotation": [
        8.432165188310137e-09,
        0.7071068286895752,
        -0.7071068286895752,
        -8.432165188310137e-09
      ],
      "scale": [
        0.40957167744636536,
        0.40957167744636536,
        0.40957167744636536
      ],
      "translation": [
        23.44378089904785,
        44.555660247802734,
        -1.1761112213134766
      ]
    },
    {
      "children": [
        6,
        7
      ],
      "matrix": [
        1.0,
        0.0,
        -0.0,
        0.0,
        0.0,
        1.0,
        0.0,
        0.0,
        0.0,
        0.0,
        1.0,
        0.0,
        -3.5885339457308874e-05,
        -25.71389389038086,
        -57.448814392089844,
        1.0
      ],
      "name": "Object_5"
    },
    {
      "mesh": 0,
      "name": "Torus006__0"
    },
    {
      "mesh": 1,
      "name": "Torus006__0"
    },
    {
      "children": [
        9
      ],
      "name": "Torus008",
      "rotation": [
        0.5,
        0.5,
        -0.5,
        0.5
      ],
      "scale": [
        0.40957167744636536,
        0.40957167744636536,
        0.40957167744636536
      ],
      "translation": [
        24.0,
        66.75808715820313,
        -0.37835693359375
      ]
    },
    {
      "children": [
        10,
        11
      ],
      "matrix": [
        1.0,
        0.0,
        -0.0,
        0.0,
        0.0,
        1.0,
        0.0,
        0.0,
        0.0,
        0.0,
        1.0,
        0.0,
        -3.5885339457308874e-05,
        -25.71389389038086,
        -57.448814392089844,
        1.0
      ],
      "name": "Object_9"
    },
    {
      "mesh": 2,
      "name": "Torus008__0"
    },
    {
      "mesh": 3,
      "name": "Torus008__0"
    }
  ],
  "scene": 0,
  "scenes": [
    {
      "name": "Sketchfab_Scene",
      "nodes": [
        0
      ]
    }
  ]
}
